<svg width="54" height="58" viewBox="0 0 54 58" fill="none" xmlns="http://www.w3.org/2000/svg">
<path d="M26.9894 0.500005C23.5874 0.499064 20.282 1.63103 17.5949 3.71725C14.9077 5.80347 12.9918 8.72515 12.1494 12.0212C11.3071 15.3172 11.5864 18.7999 12.9432 21.9195C14.3 25.0392 16.657 27.6182 19.6423 29.2496C14.3196 30.8037 9.62532 34.0024 6.23184 38.3877C2.83837 42.773 0.919835 48.1197 0.75106 53.6621C0.742114 53.9494 0.789878 54.2356 0.891622 54.5045C0.993365 54.7733 1.14709 55.0194 1.34402 55.2288C1.54094 55.4382 1.7772 55.6067 2.0393 55.7248C2.30139 55.8428 2.58417 55.908 2.87148 55.9167L27.625 73.3125L51.1102 55.9167C51.69 55.8991 52.239 55.6521 52.6366 55.2299C53.0343 54.8076 53.2479 54.2447 53.2306 53.665C53.0619 48.1226 51.1433 42.7759 47.7499 38.3906C44.3564 34.0054 39.6621 30.8066 34.3394 29.2525C37.3264 27.6218 39.6851 25.0424 41.0429 21.9218C42.4007 18.8013 42.6802 15.3173 41.8373 12.0201C40.9945 8.72296 39.0773 5.80054 36.3885 3.71438C33.6997 1.62823 30.3926 0.497227 26.9894 0.500005Z" fill="#A0A0A7"/>
</svg>
