<svg width="357" height="357" viewBox="0 0 357 357" fill="none" xmlns="http://www.w3.org/2000/svg">
<path d="M297.816 56.0621L269.743 70.8916C260.22 62.8606 249.859 56.2356 238.855 51.0387L240.739 19.4763C241.028 14.6053 237.363 9.94325 232.557 9.08749L187.298 0.892007C182.507 0.0257886 177.435 3.10824 175.987 7.73017L166.659 38.0259C154.557 39.019 142.524 41.5955 130.817 45.8015L109.742 22.0469C106.524 18.4162 100.607 17.7028 96.612 20.4652L58.7957 46.6136C54.8007 49.376 53.3937 55.1538 55.6728 59.4333L70.5338 87.4629C62.4774 96.9222 55.8316 107.283 50.6523 118.24L18.9464 116.362C14.1043 116.067 9.40523 119.719 8.55204 124.488L0.367997 169.681C-0.500334 174.461 2.58965 179.521 7.238 180.955L37.5565 190.251C38.5474 202.349 41.1709 214.346 45.3825 226.05L21.6107 247.069C17.9711 250.278 17.2455 256.166 20.0356 260.181L46.2374 297.891C49.017 301.891 54.7984 303.279 59.0778 300.991L87.1864 286.181C96.663 294.177 107.019 300.828 118.013 306.01L116.114 337.582C115.85 342.458 119.515 347.12 124.306 347.986L169.55 356.192C174.336 357.084 179.423 353.991 180.857 349.38L190.189 319.058C202.291 318.065 214.349 315.493 226.056 311.287L247.152 335.006C250.369 338.637 256.286 339.35 260.281 336.588L298.098 310.439C302.093 307.677 303.5 301.899 301.221 297.62L286.349 269.575C294.406 260.116 301.051 249.754 306.246 238.788L337.926 240.661C342.773 240.93 347.467 237.304 348.331 232.55L356.504 187.341C357.362 182.547 354.287 177.477 349.634 176.068L319.316 166.772C318.325 154.674 315.702 142.676 311.49 130.973L335.292 109.933C338.947 106.713 339.668 100.851 336.878 96.8354L310.676 59.1263C307.907 55.141 302.146 53.7828 297.816 56.0621ZM228.801 250.948C188.685 278.687 133.619 268.758 105.792 228.709C77.9744 188.675 87.9578 133.722 128.074 105.983C168.206 78.2339 223.267 88.1884 251.095 128.237C278.938 168.276 268.933 223.198 228.801 250.948Z" fill="#E8EEFF"/>
</svg>
