<svg width="100" height="100" viewBox="0 0 100 100" fill="none" xmlns="http://www.w3.org/2000/svg">
<path d="M81.3538 70.9856H97.0701" stroke="#021549" stroke-width="2.04545" stroke-miterlimit="10" stroke-linecap="round" stroke-linejoin="round"/>
<path d="M2.92969 70.9856H18.6008" stroke="#021549" stroke-width="2.04545" stroke-miterlimit="10" stroke-linecap="round" stroke-linejoin="round"/>
<path d="M57.8044 82.5026C54.8195 81.288 53.3844 77.8834 54.599 74.8984L59.5737 62.6738C60.7884 59.6889 64.193 58.2537 67.1779 59.4684C70.1628 60.683 71.598 64.0876 70.3833 67.0726L65.4086 79.2972C64.1938 82.2823 60.7893 83.7175 57.8044 82.5026Z" stroke="#021549" stroke-width="2.04545" stroke-miterlimit="10" stroke-linecap="round" stroke-linejoin="round"/>
<path d="M32.6779 82.572C29.693 81.3573 28.2579 77.9527 29.4725 74.9678L34.4473 62.7431C35.6619 59.7582 39.0665 58.3231 42.0515 59.5377C45.0364 60.7525 46.4715 64.157 45.2569 67.1419L40.2821 79.3665C39.0675 82.3515 35.6629 83.7866 32.6779 82.572Z" stroke="#021549" stroke-width="2.04545" stroke-miterlimit="10" stroke-linecap="round" stroke-linejoin="round"/>
<path d="M45.1779 82.572C42.193 81.3573 40.7579 77.9527 41.9725 74.9678L46.9473 62.7431C48.1619 59.7582 51.5665 58.3231 54.5515 59.5377C57.5364 60.7525 58.9715 64.157 57.7569 67.1419L52.7821 79.3665C51.5675 82.3515 48.1629 83.7866 45.1779 82.572Z" stroke="#021549" stroke-width="2.04545" stroke-miterlimit="10" stroke-linecap="round" stroke-linejoin="round"/>
<path d="M32.6133 67.0931C33.828 64.108 32.393 60.7035 29.4079 59.4889C26.423 58.2743 23.0183 59.7092 21.8037 62.6943L11.3093 90.0891H23.8041L32.6133 67.0931Z" stroke="#021549" stroke-width="2.04545" stroke-miterlimit="10" stroke-linecap="round" stroke-linejoin="round"/>
<path d="M67.387 74.8988C66.1723 77.8839 67.6073 81.2883 70.5924 82.503C73.5773 83.7176 76.982 82.2826 78.1966 79.2975L88.691 51.9026H76.1964L67.387 74.8988Z" stroke="#021549" stroke-width="2.04545" stroke-miterlimit="10" stroke-linecap="round" stroke-linejoin="round"/>
<path d="M81.3538 28.9939H97.0701" stroke="#021549" stroke-width="2.04545" stroke-miterlimit="10" stroke-linecap="round" stroke-linejoin="round"/>
<path d="M2.92969 28.9939H18.6008" stroke="#021549" stroke-width="2.04545" stroke-miterlimit="10" stroke-linecap="round" stroke-linejoin="round"/>
<path d="M57.8044 40.5108C54.8195 39.2962 53.3844 35.8915 54.599 32.9066L59.5737 20.682C60.7884 17.6971 64.193 16.2619 67.1779 17.4766C70.1628 18.6912 71.598 22.0958 70.3833 25.0807L65.4086 37.3054C64.1938 40.2905 60.7893 41.7256 57.8044 40.5108Z" stroke="#021549" stroke-width="2.04545" stroke-miterlimit="10" stroke-linecap="round" stroke-linejoin="round"/>
<path d="M32.6779 40.5801C29.693 39.3655 28.2579 35.9609 29.4725 32.976L34.4473 20.7513C35.6619 17.7664 39.0665 16.3313 42.0515 17.5459C45.0364 18.7605 46.4715 22.1652 45.2569 25.1501L40.2821 37.3747C39.0675 40.3596 35.6629 41.7948 32.6779 40.5801Z" stroke="#021549" stroke-width="2.04545" stroke-miterlimit="10" stroke-linecap="round" stroke-linejoin="round"/>
<path d="M45.1779 40.5801C42.193 39.3655 40.7579 35.9609 41.9725 32.976L46.9473 20.7513C48.1619 17.7664 51.5665 16.3313 54.5515 17.5459C57.5364 18.7605 58.9715 22.1652 57.7569 25.1501L52.7821 37.3747C51.5675 40.3596 48.1629 41.7948 45.1779 40.5801Z" stroke="#021549" stroke-width="2.04545" stroke-miterlimit="10" stroke-linecap="round" stroke-linejoin="round"/>
<path d="M32.6133 25.1013C33.828 22.1162 32.393 18.7117 29.4079 17.4971C26.423 16.2825 23.0183 17.7174 21.8037 20.7025L11.3093 48.0973H23.8041L32.6133 25.1013Z" stroke="#021549" stroke-width="2.04545" stroke-miterlimit="10" stroke-linecap="round" stroke-linejoin="round"/>
<path d="M67.387 32.9069C66.1723 35.892 67.6073 39.2965 70.5924 40.5111C73.5773 41.7258 76.982 40.2908 78.1966 37.3057L88.691 9.91077H76.1964L67.387 32.9069Z" stroke="#021549" stroke-width="2.04545" stroke-miterlimit="10" stroke-linecap="round" stroke-linejoin="round"/>
</svg>
