<svg width="100" height="100" viewBox="0 0 100 100" fill="none" xmlns="http://www.w3.org/2000/svg">
<g clip-path="url(#clip0_685_2005)">
<path fill-rule="evenodd" clip-rule="evenodd" d="M16.7545 51.4938C7.49854 51.4938 0 43.9953 0 34.7393C0 25.4833 7.49854 17.9847 16.7545 17.9847C26.0105 17.9847 33.5091 25.4833 33.5091 34.7393C33.5091 43.9953 26.0105 51.4938 16.7545 51.4938ZM16.7545 20.328C8.78735 20.328 2.34329 26.7721 2.34329 34.7393C2.34329 42.7065 8.78735 49.1505 16.7545 49.1505C24.6632 49.1505 31.1658 42.7065 31.1658 34.7393C31.1658 26.7721 24.7217 20.328 16.7545 20.328Z" fill="#021549"/>
<path fill-rule="evenodd" clip-rule="evenodd" d="M16.7542 45.5773C10.7788 45.5773 5.9165 40.715 5.9165 34.7396C5.9165 28.7642 10.7788 23.9019 16.7542 23.9019C22.7296 23.9019 27.592 28.7642 27.592 34.7396C27.592 40.715 22.7296 45.5773 16.7542 45.5773ZM16.7542 26.2451C12.0676 26.2451 8.2598 30.053 8.2598 34.7396C8.2598 39.4262 12.0676 43.234 16.7542 43.234C21.4408 43.234 25.2487 39.4262 25.2487 34.7396C25.2487 30.053 21.4408 26.2451 16.7542 26.2451Z" fill="#021549"/>
<path fill-rule="evenodd" clip-rule="evenodd" d="M26.1275 48.3302C25.776 48.3302 25.4245 48.2131 25.1902 47.8616C24.8387 47.3929 24.8973 46.6314 25.4245 46.2213L47.2757 29.7597C50.3806 27.4164 52.3138 24.0186 52.841 20.2107C53.3683 16.4029 52.431 12.595 50.0877 9.54876C47.803 6.50248 44.4052 4.51068 40.5973 3.98344C36.7895 3.4562 32.9816 4.4521 29.9354 6.73681L8.08416 23.257C7.55692 23.6085 6.79535 23.5499 6.44386 23.0227C6.03378 22.4955 6.15095 21.7339 6.67819 21.3824L28.5294 4.86218C32.0443 2.16739 36.4966 1.05433 40.9488 1.64015C45.3425 2.28455 49.2675 4.56926 51.9623 8.14279C54.6571 11.7163 55.8287 16.11 55.1843 20.5622C54.5399 25.0145 52.2552 28.9395 48.6817 31.5757L26.8305 48.0959C26.6548 48.2717 26.4204 48.3302 26.1275 48.3302Z" fill="#021549"/>
<path fill-rule="evenodd" clip-rule="evenodd" d="M45.9289 98.4766C45.5774 98.4766 45.2845 98.3595 45.0501 98.1251C44.5815 97.6565 44.6401 96.8949 45.1087 96.4848L97.6571 47.8029V23.1398C97.6571 22.4954 98.1843 21.9681 98.8287 21.9681C99.4731 21.9681 100 22.4954 100 23.1398V48.3302C100 48.6817 99.8246 48.9746 99.5903 49.2089L46.6904 98.1837C46.4561 98.3595 46.1632 98.4766 45.9289 98.4766Z" fill="#021549"/>
<path fill-rule="evenodd" clip-rule="evenodd" d="M45.9284 69.6544C45.5769 69.6544 45.2254 69.5373 45.0497 69.3029C44.581 68.7757 44.6396 68.0727 45.1668 67.604L96.0749 23.9602L74.2822 20.7382L17.8675 69.4201C17.3988 69.8302 16.6372 69.7716 16.2272 69.3029C15.8171 68.7757 15.8757 68.0727 16.3443 67.604L73.1106 18.6292C73.4035 18.3949 73.755 18.3363 74.0479 18.3949L99.004 22.027C99.4141 22.0856 99.8241 22.3785 99.9413 22.8472C100.058 23.2572 99.9413 23.7845 99.5898 24.0774L46.69 69.4201C46.4557 69.5958 46.1627 69.6544 45.9284 69.6544Z" fill="#021549"/>
<path fill-rule="evenodd" clip-rule="evenodd" d="M45.9282 98.4769H17.1057C16.4613 98.4769 15.9341 97.9497 15.9341 97.3053V68.4828C15.9341 67.8384 16.4613 67.3112 17.1057 67.3112H45.9282C46.5726 67.3112 47.0999 67.8384 47.0999 68.4828V97.3053C47.0999 97.9497 46.5726 98.4769 45.9282 98.4769ZM18.2774 96.1337H44.7566V69.6544H18.2774V96.1337Z" fill="#021549"/>
<path fill-rule="evenodd" clip-rule="evenodd" d="M36.9656 89.5726H26.0108C25.3664 89.5726 24.8391 89.0454 24.8391 88.4009V77.4461C24.8391 76.8017 25.3664 76.2744 26.0108 76.2744H36.9656C37.6686 76.2744 38.1373 76.8017 38.1373 77.4461V88.4009C38.1373 89.0454 37.6101 89.5726 36.9656 89.5726ZM27.1824 87.2293H35.794V78.6177H27.1824V87.2293Z" fill="#021549"/>
<path fill-rule="evenodd" clip-rule="evenodd" d="M31.7517 69.42C31.4002 69.42 31.1073 69.3029 30.873 69.0099C30.4629 68.5413 30.2286 68.0726 30.7558 67.604L85.5889 20.4452C86.0575 20.0351 86.4676 20.5038 86.8777 21.031C87.2877 21.4997 87.5807 21.7926 87.112 22.2027L32.279 69.42C32.0446 69.5958 32.0446 69.42 31.7517 69.42Z" fill="#021549"/>
<path fill-rule="evenodd" clip-rule="evenodd" d="M45.9282 84.0658C45.5767 84.0658 45.5181 83.7729 45.2838 83.48C44.8737 83.0113 44.6394 82.4841 45.108 82.0154L98.0078 34.8567C98.5351 34.4466 98.828 34.7981 99.2967 35.2667C99.7067 35.7354 100.058 36.2041 99.5896 36.6141L46.6897 83.7729C46.4554 84.0072 46.1625 84.0658 45.9282 84.0658Z" fill="#021549"/>
</g>
<defs>
<clipPath id="clip0_685_2005">
<rect width="100" height="100" fill="white"/>
</clipPath>
</defs>
</svg>
