<svg width="100" height="100" viewBox="0 0 100 100" fill="none" xmlns="http://www.w3.org/2000/svg">
<path d="M17.9041 57.6792L5.43042 70.0892" stroke="#021549" stroke-width="2.92969" stroke-miterlimit="10" stroke-linecap="round" stroke-linejoin="round"/>
<path d="M29.3159 90.6808L34.0424 85.9812" stroke="#021549" stroke-width="2.92969" stroke-miterlimit="10" stroke-linecap="round" stroke-linejoin="round"/>
<path d="M8.28965 93.4573C10.8387 95.2126 13.9291 96.2433 17.2629 96.2433C25.9879 96.2433 33.0607 89.2005 33.0607 80.513C33.0607 71.8255 25.9877 64.7827 17.2629 64.7827C8.53789 64.7827 1.46484 71.8255 1.46484 80.513C1.46484 83.7997 2.47871 86.8501 4.20977 89.3737" stroke="#021549" stroke-width="2.92969" stroke-miterlimit="10" stroke-linecap="round" stroke-linejoin="round"/>
<path d="M17.2629 91.1644C23.1833 91.1644 27.9828 86.3953 27.9828 80.5123C27.9828 74.6292 23.1833 69.8601 17.2629 69.8601C11.3424 69.8601 6.54297 74.6292 6.54297 80.5123C6.54297 86.3953 11.3424 91.1644 17.2629 91.1644Z" stroke="#021549" stroke-width="2.92969" stroke-miterlimit="10" stroke-linecap="round" stroke-linejoin="round"/>
<path d="M60.9114 90.6807L93.5015 58.2764C93.7712 58.0262 94.0317 57.7667 94.2835 57.4985L94.3333 57.4489L94.3319 57.4477C96.9394 54.6424 98.5349 50.8913 98.5349 46.7676C98.5349 38.0799 91.4618 31.0374 82.7368 31.0374C80.4368 31.0374 78.2521 31.5274 76.2816 32.4079" stroke="#021549" stroke-width="2.92969" stroke-miterlimit="10" stroke-linecap="round" stroke-linejoin="round"/>
<path d="M48.8585 96.2425C57.5835 96.2425 64.6565 89.1998 64.6565 80.5123C64.6565 71.8247 57.5835 64.782 48.8585 64.782C40.1335 64.782 33.0604 71.8247 33.0604 80.5123C33.0604 89.1998 40.1335 96.2425 48.8585 96.2425Z" stroke="#021549" stroke-width="2.92969" stroke-miterlimit="10" stroke-linecap="round" stroke-linejoin="round"/>
<path d="M48.8585 91.1644C54.7789 91.1644 59.5784 86.3953 59.5784 80.5123C59.5784 74.6292 54.7789 69.8601 48.8585 69.8601C42.938 69.8601 38.1385 74.6292 38.1385 80.5123C38.1385 86.3953 42.938 91.1644 48.8585 91.1644Z" stroke="#021549" stroke-width="2.92969" stroke-miterlimit="10" stroke-linecap="round" stroke-linejoin="round"/>
<path d="M75.7723 6.44287C73.251 4.74678 70.2114 3.75635 66.9395 3.75635C62.1083 3.75635 57.7864 5.91807 54.8886 9.32041L54.8866 9.31865L21.4667 42.5472" stroke="#021549" stroke-width="2.92969" stroke-miterlimit="10" stroke-linecap="round" stroke-linejoin="round"/>
<path d="M45.1137 63.4L77.7038 30.9957C77.9735 30.7455 78.234 30.4859 78.4858 30.2177L78.5356 30.1681L78.5342 30.1669C81.1417 27.3617 82.7372 23.6105 82.7372 19.4869C82.7372 16.3148 81.7942 13.3621 80.1723 10.8914" stroke="#021549" stroke-width="2.92969" stroke-miterlimit="10" stroke-linecap="round" stroke-linejoin="round"/>
<path d="M33.0611 68.9623C41.7861 68.9623 48.8592 61.9196 48.8592 53.232C48.8592 44.5444 41.7861 37.5017 33.0611 37.5017C24.3361 37.5017 17.2631 44.5444 17.2631 53.232C17.2631 61.9196 24.3361 68.9623 33.0611 68.9623Z" stroke="#021549" stroke-width="2.92969" stroke-miterlimit="10" stroke-linecap="round" stroke-linejoin="round"/>
<path d="M33.0609 63.8841C38.9813 63.8841 43.7806 59.115 43.7806 53.232C43.7806 47.349 38.9813 42.5798 33.0609 42.5798C27.1406 42.5798 22.3412 47.349 22.3412 53.232C22.3412 59.115 27.1406 63.8841 33.0609 63.8841Z" stroke="#021549" stroke-width="2.92969" stroke-miterlimit="10" stroke-linecap="round" stroke-linejoin="round"/>
</svg>
