<svg width="100" height="100" viewBox="0 0 100 100" fill="none" xmlns="http://www.w3.org/2000/svg">
<g clip-path="url(#clip0_685_410)">
<path d="M81.0913 63.6897H96.581C97.6601 63.6897 98.5349 62.8149 98.5349 61.7358V43.0071" stroke="#021549" stroke-width="2.10938" stroke-miterlimit="10" stroke-linecap="round" stroke-linejoin="round"/>
<path d="M98.5352 36.5299V3.41875C98.5352 2.33965 97.6604 1.46484 96.5813 1.46484H38.2643C37.1852 1.46484 36.3104 2.33965 36.3104 3.41875V18.9084" stroke="#021549" stroke-width="2.10938" stroke-miterlimit="10" stroke-linecap="round" stroke-linejoin="round"/>
<path d="M63.6896 81.1333H79.1374C80.2165 81.1333 81.0913 80.2585 81.0913 79.1794V74.4679" stroke="#021549" stroke-width="2.10938" stroke-miterlimit="10" stroke-linecap="round" stroke-linejoin="round"/>
<path d="M54.4994 18.9087H20.8205C19.7414 18.9087 18.8666 19.7835 18.8666 20.8626V36.3104" stroke="#021549" stroke-width="2.10938" stroke-miterlimit="10" stroke-linecap="round" stroke-linejoin="round"/>
<path d="M81.0912 67.9909V20.8626C81.0912 19.7835 80.2164 18.9087 79.1373 18.9087H60.9763" stroke="#021549" stroke-width="2.10938" stroke-miterlimit="10" stroke-linecap="round" stroke-linejoin="round"/>
<path d="M61.7357 98.5352H3.41875C2.33965 98.5352 1.46484 97.6604 1.46484 96.5813V38.2643C1.46484 37.1852 2.33965 36.3104 3.41875 36.3104H61.7355C62.8146 36.3104 63.6895 37.1852 63.6895 38.2643V96.5811C63.6896 97.6604 62.8148 98.5352 61.7357 98.5352Z" stroke="#021549" stroke-width="2.10938" stroke-miterlimit="10" stroke-linecap="round" stroke-linejoin="round"/>
<path d="M10.4406 89.5591L7.45996 92.5398" stroke="#021549" stroke-width="2.10938" stroke-miterlimit="10" stroke-linecap="round" stroke-linejoin="round"/>
<path d="M1.55347 83.6523L4.53413 86.633" stroke="#021549" stroke-width="2.10938" stroke-miterlimit="10" stroke-linecap="round" stroke-linejoin="round"/>
<path d="M1.55347 71.8387L4.53413 74.8194" stroke="#021549" stroke-width="2.10938" stroke-miterlimit="10" stroke-linecap="round" stroke-linejoin="round"/>
<path d="M10.4406 77.7451L7.45996 80.7258" stroke="#021549" stroke-width="2.10938" stroke-miterlimit="10" stroke-linecap="round" stroke-linejoin="round"/>
<path d="M22.2542 89.5586L19.2736 92.5393" stroke="#021549" stroke-width="2.10938" stroke-miterlimit="10" stroke-linecap="round" stroke-linejoin="round"/>
<path d="M13.3671 83.6521L16.3477 86.6328" stroke="#021549" stroke-width="2.10938" stroke-miterlimit="10" stroke-linecap="round" stroke-linejoin="round"/>
<path d="M10.4406 65.9324L7.45996 68.913" stroke="#021549" stroke-width="2.10938" stroke-miterlimit="10" stroke-linecap="round" stroke-linejoin="round"/>
<path d="M1.55347 60.0256L4.53413 63.0063" stroke="#021549" stroke-width="2.10938" stroke-miterlimit="10" stroke-linecap="round" stroke-linejoin="round"/>
<path d="M13.3671 71.8389L16.3477 74.8195" stroke="#021549" stroke-width="2.10938" stroke-miterlimit="10" stroke-linecap="round" stroke-linejoin="round"/>
<path d="M22.2542 77.7454L19.2736 80.726" stroke="#021549" stroke-width="2.10938" stroke-miterlimit="10" stroke-linecap="round" stroke-linejoin="round"/>
<path d="M34.0672 89.5588L31.0865 92.5395" stroke="#021549" stroke-width="2.10938" stroke-miterlimit="10" stroke-linecap="round" stroke-linejoin="round"/>
<path d="M25.1801 83.6523L28.1607 86.633" stroke="#021549" stroke-width="2.10938" stroke-miterlimit="10" stroke-linecap="round" stroke-linejoin="round"/>
<path d="M10.4406 54.119L7.45996 57.0997" stroke="#021549" stroke-width="2.10938" stroke-miterlimit="10" stroke-linecap="round" stroke-linejoin="round"/>
<path d="M1.55347 48.212L4.53413 51.1927" stroke="#021549" stroke-width="2.10938" stroke-miterlimit="10" stroke-linecap="round" stroke-linejoin="round"/>
<path d="M22.2541 65.9323L19.2734 68.9129" stroke="#021549" stroke-width="2.10938" stroke-miterlimit="10" stroke-linecap="round" stroke-linejoin="round"/>
<path d="M13.3671 60.0255L16.3477 63.0062" stroke="#021549" stroke-width="2.10938" stroke-miterlimit="10" stroke-linecap="round" stroke-linejoin="round"/>
<path d="M25.1802 71.8386L28.1608 74.8193" stroke="#021549" stroke-width="2.10938" stroke-miterlimit="10" stroke-linecap="round" stroke-linejoin="round"/>
<path d="M34.0673 77.7451L31.0867 80.7258" stroke="#021549" stroke-width="2.10938" stroke-miterlimit="10" stroke-linecap="round" stroke-linejoin="round"/>
<path d="M45.8803 89.5586L42.8997 92.5393" stroke="#021549" stroke-width="2.10938" stroke-miterlimit="10" stroke-linecap="round" stroke-linejoin="round"/>
<path d="M36.9932 83.6521L39.9738 86.6328" stroke="#021549" stroke-width="2.10938" stroke-miterlimit="10" stroke-linecap="round" stroke-linejoin="round"/>
<path d="M10.4407 42.3055L7.46008 45.2862" stroke="#021549" stroke-width="2.10938" stroke-miterlimit="10" stroke-linecap="round" stroke-linejoin="round"/>
<path d="M22.2543 54.119L19.2737 57.0997" stroke="#021549" stroke-width="2.10938" stroke-miterlimit="10" stroke-linecap="round" stroke-linejoin="round"/>
<path d="M13.3672 48.2119L16.3478 51.1926" stroke="#021549" stroke-width="2.10938" stroke-miterlimit="10" stroke-linecap="round" stroke-linejoin="round"/>
<path d="M34.0673 65.9323L31.0867 68.9129" stroke="#021549" stroke-width="2.10938" stroke-miterlimit="10" stroke-linecap="round" stroke-linejoin="round"/>
<path d="M25.1802 60.0255L28.1608 63.0062" stroke="#021549" stroke-width="2.10938" stroke-miterlimit="10" stroke-linecap="round" stroke-linejoin="round"/>
<path d="M36.9933 71.8386L39.9739 74.8193" stroke="#021549" stroke-width="2.10938" stroke-miterlimit="10" stroke-linecap="round" stroke-linejoin="round"/>
<path d="M45.8806 77.7451L42.8999 80.7258" stroke="#021549" stroke-width="2.10938" stroke-miterlimit="10" stroke-linecap="round" stroke-linejoin="round"/>
<path d="M57.6943 89.5586L54.7136 92.5393" stroke="#021549" stroke-width="2.10938" stroke-miterlimit="10" stroke-linecap="round" stroke-linejoin="round"/>
<path d="M48.807 83.6521L51.7877 86.6328" stroke="#021549" stroke-width="2.10938" stroke-miterlimit="10" stroke-linecap="round" stroke-linejoin="round"/>
<path d="M22.2542 42.3054L19.2736 45.2861" stroke="#021549" stroke-width="2.10938" stroke-miterlimit="10" stroke-linecap="round" stroke-linejoin="round"/>
<path d="M34.0672 54.1189L31.0865 57.0996" stroke="#021549" stroke-width="2.10938" stroke-miterlimit="10" stroke-linecap="round" stroke-linejoin="round"/>
<path d="M25.1801 48.2118L28.1607 51.1925" stroke="#021549" stroke-width="2.10938" stroke-miterlimit="10" stroke-linecap="round" stroke-linejoin="round"/>
<path d="M45.8803 65.9323L42.8997 68.9129" stroke="#021549" stroke-width="2.10938" stroke-miterlimit="10" stroke-linecap="round" stroke-linejoin="round"/>
<path d="M36.9932 60.0255L39.9738 63.0062" stroke="#021549" stroke-width="2.10938" stroke-miterlimit="10" stroke-linecap="round" stroke-linejoin="round"/>
<path d="M48.8069 71.8386L51.7876 74.8193" stroke="#021549" stroke-width="2.10938" stroke-miterlimit="10" stroke-linecap="round" stroke-linejoin="round"/>
<path d="M57.694 77.7451L54.7134 80.7258" stroke="#021549" stroke-width="2.10938" stroke-miterlimit="10" stroke-linecap="round" stroke-linejoin="round"/>
<path d="M60.6199 83.6521L63.6005 86.6328" stroke="#021549" stroke-width="2.10938" stroke-miterlimit="10" stroke-linecap="round" stroke-linejoin="round"/>
<path d="M13.3671 95.4653L16.3477 98.446" stroke="#021549" stroke-width="2.10938" stroke-miterlimit="10" stroke-linecap="round" stroke-linejoin="round"/>
<path d="M25.1801 95.4652L28.1607 98.4459" stroke="#021549" stroke-width="2.10938" stroke-miterlimit="10" stroke-linecap="round" stroke-linejoin="round"/>
<path d="M36.993 95.4652L39.9737 98.4459" stroke="#021549" stroke-width="2.10938" stroke-miterlimit="10" stroke-linecap="round" stroke-linejoin="round"/>
<path d="M48.8068 95.4652L51.7874 98.4459" stroke="#021549" stroke-width="2.10938" stroke-miterlimit="10" stroke-linecap="round" stroke-linejoin="round"/>
<path d="M60.6198 95.4652L62.8701 97.7156" stroke="#021549" stroke-width="2.10938" stroke-miterlimit="10" stroke-linecap="round" stroke-linejoin="round"/>
<path d="M34.0675 42.3055L31.0868 45.2862" stroke="#021549" stroke-width="2.10938" stroke-miterlimit="10" stroke-linecap="round" stroke-linejoin="round"/>
<path d="M45.8804 54.119L42.8998 57.0997" stroke="#021549" stroke-width="2.10938" stroke-miterlimit="10" stroke-linecap="round" stroke-linejoin="round"/>
<path d="M36.9933 48.2119L39.9739 51.1926" stroke="#021549" stroke-width="2.10938" stroke-miterlimit="10" stroke-linecap="round" stroke-linejoin="round"/>
<path d="M57.694 65.9323L54.7134 68.9129" stroke="#021549" stroke-width="2.10938" stroke-miterlimit="10" stroke-linecap="round" stroke-linejoin="round"/>
<path d="M48.8069 60.0255L51.7875 63.0062" stroke="#021549" stroke-width="2.10938" stroke-miterlimit="10" stroke-linecap="round" stroke-linejoin="round"/>
<path d="M60.62 71.8386L63.6007 74.8193" stroke="#021549" stroke-width="2.10938" stroke-miterlimit="10" stroke-linecap="round" stroke-linejoin="round"/>
<path d="M45.8811 42.3055L42.9004 45.2862" stroke="#021549" stroke-width="2.10938" stroke-miterlimit="10" stroke-linecap="round" stroke-linejoin="round"/>
<path d="M57.694 54.119L54.7134 57.0997" stroke="#021549" stroke-width="2.10938" stroke-miterlimit="10" stroke-linecap="round" stroke-linejoin="round"/>
<path d="M48.8069 48.2119L51.7876 51.1926" stroke="#021549" stroke-width="2.10938" stroke-miterlimit="10" stroke-linecap="round" stroke-linejoin="round"/>
<path d="M60.6199 60.0255L63.6005 63.0062" stroke="#021549" stroke-width="2.10938" stroke-miterlimit="10" stroke-linecap="round" stroke-linejoin="round"/>
<path d="M57.6942 42.3055L54.7135 45.2862" stroke="#021549" stroke-width="2.10938" stroke-miterlimit="10" stroke-linecap="round" stroke-linejoin="round"/>
<path d="M60.62 48.2119L63.6007 51.1926" stroke="#021549" stroke-width="2.10938" stroke-miterlimit="10" stroke-linecap="round" stroke-linejoin="round"/>
<path d="M2.21765 36.9744L4.53406 39.2908" stroke="#021549" stroke-width="2.10938" stroke-miterlimit="10" stroke-linecap="round" stroke-linejoin="round"/>
<path d="M13.3671 36.3102L16.3477 39.2908" stroke="#021549" stroke-width="2.10938" stroke-miterlimit="10" stroke-linecap="round" stroke-linejoin="round"/>
<path d="M25.1802 36.3102L28.1608 39.2908" stroke="#021549" stroke-width="2.10938" stroke-miterlimit="10" stroke-linecap="round" stroke-linejoin="round"/>
<path d="M36.9933 36.3102L39.9739 39.2908" stroke="#021549" stroke-width="2.10938" stroke-miterlimit="10" stroke-linecap="round" stroke-linejoin="round"/>
<path d="M48.8069 36.3102L51.7875 39.2908" stroke="#021549" stroke-width="2.10938" stroke-miterlimit="10" stroke-linecap="round" stroke-linejoin="round"/>
</g>
<defs>
<clipPath id="clip0_685_410">
<rect width="100" height="100" fill="white"/>
</clipPath>
</defs>
</svg>
