<svg width="100" height="100" viewBox="0 0 100 100" fill="none" xmlns="http://www.w3.org/2000/svg">
<path fill-rule="evenodd" clip-rule="evenodd" d="M13.5666 61.8054L5.25835 53.5203C4.86805 53.1315 4.75088 52.5457 4.96133 52.0367C5.17178 51.5278 5.66805 51.1957 6.21879 51.1957H44.4486C45.03 51.1957 45.5471 51.5651 45.736 52.1151C45.9248 52.6643 45.7434 53.274 45.2845 53.6308L34.6464 61.9061V75.9031L43.7576 86.0337C44.1173 86.4337 44.2076 87.0069 43.9889 87.4979C43.7703 87.989 43.283 88.3046 42.7457 88.3046H6.21879C5.67775 88.3046 5.18745 87.9837 4.97103 87.4875C4.75462 86.9905 4.85387 86.4128 5.22327 86.0166L13.5666 77.0546V61.8054ZM40.4822 53.9173H9.51133L15.8889 60.2763C16.1449 60.5315 16.2889 60.8785 16.2889 61.2405V77.5897C16.2889 77.9337 16.1583 78.2651 15.924 78.5173L9.34566 85.583H39.6912L32.2733 77.3352C32.0486 77.0852 31.9248 76.7614 31.9248 76.4248V61.2405C31.9248 60.8203 32.118 60.424 32.4494 60.1658L40.4822 53.9173Z" fill="#021549"/>
<path fill-rule="evenodd" clip-rule="evenodd" d="M44.4483 53.9173C44.7722 53.9173 45.0849 53.8024 45.3312 53.5927L92.3088 13.5949C92.7528 13.2173 92.9065 12.5994 92.6924 12.0583C92.4774 11.5165 91.9424 11.171 91.361 11.1994L60.0655 12.7158C59.805 12.7285 59.5535 12.8158 59.3409 12.9673L5.42817 51.4486C4.94608 51.7927 4.74235 52.4083 4.92294 52.9718C5.10279 53.5352 5.62667 53.9173 6.21846 53.9173H44.4483ZM60.5968 15.415L10.4685 51.1956H43.9476L87.5035 14.1113L60.5968 15.415Z" fill="#021549"/>
<path fill-rule="evenodd" clip-rule="evenodd" d="M43.5897 51.5007L80.1128 20.4037C80.5374 20.0432 81.1389 19.9768 81.6315 20.2373C82.124 20.497 82.4076 21.0313 82.3486 21.5858L80.6904 37.0447C80.6531 37.3887 80.4867 37.7067 80.2233 37.932L34.1718 77.4574C33.768 77.8037 33.2001 77.8835 32.7173 77.6611C32.2337 77.4395 31.9247 76.9566 31.9247 76.4246V61.2402C31.9247 60.8201 32.118 60.4238 32.4494 60.1656L43.5897 51.5007ZM45.3315 53.5925L34.6464 61.9052V73.4634L78.0412 36.2179L79.2777 24.6902L45.3315 53.5925Z" fill="#021549"/>
<path fill-rule="evenodd" clip-rule="evenodd" d="M41.7336 87.8538C41.9769 88.1246 42.3187 88.2866 42.6821 88.303C43.0448 88.3202 43.4 88.1911 43.6679 87.9448L94.206 41.3776C94.5739 41.0381 94.7261 40.5246 94.6022 40.0396C94.4784 39.5552 94.0985 39.1769 93.6127 39.056L79.6664 35.5791C79.2381 35.4724 78.7851 35.5791 78.4507 35.8664L32.3985 75.3918C32.1209 75.6306 31.9507 75.9717 31.9269 76.3373C31.9037 76.703 32.0284 77.0627 32.2731 77.3351L41.7336 87.8538ZM35.2284 76.5508L42.8366 85.0097L90.5045 41.0866L79.6903 38.3903L35.2284 76.5508Z" fill="#021549"/>
<path fill-rule="evenodd" clip-rule="evenodd" d="M74.5918 48.0664L72.6791 49.656C72.1015 50.1358 72.0217 50.9948 72.5015 51.5724C72.9814 52.15 73.8403 52.2298 74.418 51.7492L76.3314 50.1604C76.909 49.6806 76.9881 48.8216 76.5083 48.244C76.0284 47.6664 75.1694 47.5866 74.5918 48.0664Z" fill="#021549"/>
<path fill-rule="evenodd" clip-rule="evenodd" d="M86.1662 37.8037L77.8587 45.1007C77.2938 45.597 77.2386 46.4574 77.7341 47.0216C78.2296 47.5858 79.0908 47.6417 79.655 47.1462L87.9624 39.8484C88.5266 39.3529 88.5826 38.4925 88.0871 37.9276C87.5915 37.3634 86.7303 37.3074 86.1662 37.8037Z" fill="#021549"/>
</svg>
