<svg width="188" height="127" viewBox="0 0 188 127" fill="none" xmlns="http://www.w3.org/2000/svg">
<path d="M170.367 37.4836L162.042 41.8812C159.218 39.4996 156.146 37.5351 152.882 35.994L153.441 26.6344C153.527 25.19 152.44 23.8075 151.015 23.5537L137.594 21.1234C136.173 20.8666 134.669 21.7806 134.239 23.1512L131.473 32.1352C127.884 32.4297 124.316 33.1937 120.845 34.4409L114.595 27.3967C113.641 26.3201 111.886 26.1085 110.701 26.9277L99.4874 34.6818C98.3027 35.5009 97.8855 37.2143 98.5613 38.4833L102.968 46.7952C100.579 49.6003 98.6084 52.6729 97.0725 55.9219L87.6704 55.365C86.2345 55.2776 84.8411 56.3604 84.5881 57.7747L82.1611 71.1764C81.9036 72.5937 82.82 74.0941 84.1984 74.5195L93.1891 77.2761C93.4829 80.8637 94.2609 84.4214 95.5098 87.8921L88.4605 94.125C87.3812 95.0767 87.166 96.8227 87.9934 98.0134L95.7633 109.196C96.5876 110.382 98.302 110.794 99.571 110.115L107.906 105.723C110.717 108.095 113.788 110.067 117.048 111.603L116.485 120.966C116.406 122.412 117.493 123.794 118.914 124.051L132.33 126.485C133.75 126.749 135.258 125.832 135.683 124.464L138.451 115.473C142.04 115.178 145.615 114.416 149.087 113.168L155.343 120.202C156.297 121.279 158.051 121.49 159.236 120.671L170.45 112.917C171.635 112.098 172.052 110.384 171.376 109.115L166.966 100.799C169.355 97.9939 171.326 94.9214 172.866 91.6693L182.261 92.2248C183.698 92.3046 185.09 91.2293 185.346 89.8196L187.77 76.4134C188.025 74.9915 187.113 73.4881 185.733 73.0703L176.742 70.3137C176.449 66.726 175.671 63.1683 174.422 59.6977L181.48 53.4586C182.564 52.5037 182.777 50.7653 181.95 49.5746L174.18 38.3923C173.359 37.2105 171.651 36.8077 170.367 37.4836ZM149.901 95.2752C138.005 103.501 121.676 100.557 113.424 88.6804C105.175 76.8087 108.135 60.5131 120.031 52.2873C131.932 44.0585 148.26 47.0104 156.512 58.8866C164.768 70.7596 161.802 87.0464 149.901 95.2752Z" fill="#E8EEFF"/>
<path d="M60.3619 11.6987L54.7263 14.6758C52.8145 13.0635 50.7345 11.7336 48.5254 10.6903L48.9036 4.35404C48.9617 3.37616 48.2259 2.44025 47.261 2.26845L38.1753 0.623186C37.2134 0.44929 36.1952 1.0681 35.9044 1.99597L34.0318 8.07793C31.6023 8.2773 29.1867 8.79452 26.8366 9.6389L22.6055 4.87009C21.9597 4.14121 20.7718 3.998 19.9698 4.55256L12.378 9.80193C11.576 10.3565 11.2936 11.5164 11.7511 12.3755L14.7345 18.0025C13.1171 19.9015 11.783 21.9816 10.7432 24.1811L4.37816 23.8041C3.40608 23.7449 2.46274 24.478 2.29146 25.4354L0.648491 34.5081C0.474171 35.4676 1.09449 36.4834 2.02766 36.7713L8.11419 38.6375C8.31311 41.0662 8.83978 43.4747 9.68529 45.8243L4.91302 50.0439C4.18236 50.6882 4.03669 51.8702 4.59681 52.6763L9.8569 60.2465C10.4149 61.0496 11.5756 61.3283 12.4347 60.8689L18.0775 57.8958C19.98 59.501 22.059 60.8361 24.266 61.8764L23.8848 68.2147C23.8318 69.1935 24.5676 70.1294 25.5295 70.3033L34.6122 71.9507C35.5731 72.1297 36.5944 71.5088 36.8821 70.5831L38.7556 64.496C41.1852 64.2966 43.6059 63.7803 45.956 62.9359L50.191 67.6975C50.8369 68.4264 52.0248 68.5696 52.8268 68.015L60.4186 62.7657C61.2206 62.2111 61.503 61.0512 61.0455 60.1921L58.06 54.562C59.6774 52.6631 61.0115 50.583 62.0543 48.3814L68.4142 48.7575C69.3872 48.8115 70.3296 48.0836 70.503 47.1292L72.1439 38.0534C72.3161 37.0909 71.6988 36.0731 70.7647 35.7902L64.6782 33.924C64.4793 31.4953 63.9526 29.0868 63.1071 26.7372L67.8854 22.5135C68.6191 21.8671 68.7639 20.6902 68.2037 19.8841L62.9436 12.3139C62.3877 11.5138 61.2313 11.2412 60.3619 11.6987ZM46.5072 50.8226C38.4536 56.3912 27.399 54.398 21.8126 46.358C16.2282 38.3211 18.2324 27.2892 26.2859 21.7206C34.3424 16.1498 45.3961 18.1482 50.9826 26.1881C56.5721 34.226 54.5637 45.2518 46.5072 50.8226Z" fill="#E8EEFF"/>
</svg>
