<svg width="152" height="152" viewBox="0 0 152 152" fill="none" xmlns="http://www.w3.org/2000/svg">
<path d="M20.0519 121.908L32.4656 116.994C36.061 120.79 40.0764 124.068 44.4402 126.738L42.1642 139.858C41.8096 141.856 43.1456 143.98 45.0993 144.569L63.6079 150.077C65.5665 150.676 67.8308 149.617 68.649 147.742L73.9546 135.518C79.0563 135.668 84.2051 135.128 89.2589 133.917L96.9677 144.797C98.1334 146.476 100.573 147.037 102.354 146.076L119.361 136.9C121.159 135.93 122.018 133.589 121.259 131.691L116.352 119.299C120.163 115.727 123.423 111.719 126.102 107.37L139.245 109.629C141.25 109.969 143.373 108.649 143.964 106.721L149.488 88.212C150.083 86.2473 149.018 84.0002 147.145 83.1923L134.903 77.8945C135.063 72.7954 134.513 67.6591 133.313 62.571L144.218 54.8916C145.895 53.7186 146.457 51.2823 145.485 49.4866L136.3 32.5132C135.338 30.7356 132.975 29.8651 131.093 30.6361L118.677 35.5044C115.083 31.7313 111.068 28.4764 106.722 25.7964L108.998 12.677C109.339 10.6745 108.012 8.54591 106.063 7.96522L87.5728 2.44795C85.6004 1.84507 83.3499 2.90771 82.5408 4.77824L77.2401 17.0114C72.1383 16.8611 66.9847 17.3917 61.9128 18.6127L54.2032 7.70996C53.0522 6.05763 50.6033 5.50197 48.814 6.46738L31.8156 15.6388C30.0262 16.6042 29.1677 18.9444 29.912 20.8162L34.8292 33.2255C31.0178 36.7975 27.7581 40.8063 25.0881 45.1498L11.9453 42.891C9.92585 42.5466 7.80729 43.8529 7.21671 45.8037L1.7018 64.308C1.10633 66.2497 2.16637 68.5107 4.03966 69.3187L16.2728 74.6214C16.1084 79.7115 16.6669 84.8428 17.8716 89.917L6.95691 97.6014C5.28968 98.7924 4.71367 101.202 5.69027 103.006L14.8703 119.971C15.8157 121.804 18.1586 122.638 20.0519 121.908ZM57.9157 43.6543C75.9714 33.9125 98.4848 40.6284 108.231 58.6395C117.983 76.6596 111.248 99.1447 93.2101 108.877C75.1905 118.599 52.6639 111.902 42.9126 93.8819C33.171 75.8799 39.8871 53.3816 57.9157 43.6543Z" stroke="#35446D" stroke-width="3"/>
</svg>
