<svg width="131" height="58" viewBox="0 0 131 58" fill="none" xmlns="http://www.w3.org/2000/svg">
<path d="M0.240511 7.99706C0.627214 7.57179 1.06579 7.1769 1.55625 6.81238C2.05613 6.44787 2.60318 6.13905 3.19738 5.88591C3.79158 5.62265 4.43294 5.42014 5.12146 5.27839C5.80999 5.12651 6.54095 5.05056 7.31436 5.05056C8.83288 5.05056 10.2241 5.32901 11.4879 5.88591C12.7518 6.44281 13.8364 7.22246 14.7419 8.22488C15.6473 9.22729 16.35 10.4221 16.8499 11.8093C17.3498 13.1863 17.5997 14.7001 17.5997 16.3505C17.5997 17.9706 17.3686 19.4742 16.9065 20.8614C16.4443 22.2384 15.7794 23.4332 14.9117 24.4458C14.0534 25.4482 13.0017 26.238 11.7567 26.8151C10.5212 27.3822 9.12055 27.6657 7.55487 27.6657C5.84771 27.6657 4.36692 27.372 3.11249 26.7847C1.8675 26.1874 0.829998 25.3064 0 24.142L1.89579 22.0005C1.99954 21.8891 2.10801 21.8132 2.22119 21.7727C2.33437 21.722 2.44755 21.6967 2.56073 21.6967C2.70221 21.6967 2.83897 21.7322 2.97102 21.803C3.10306 21.8638 3.22567 21.9448 3.33886 22.0461C3.62181 22.3194 3.90005 22.5473 4.17357 22.7295C4.44709 22.9017 4.73948 23.0434 5.05073 23.1548C5.36197 23.256 5.69209 23.332 6.04106 23.3826C6.39947 23.4231 6.80032 23.4434 7.24362 23.4434C7.89441 23.4434 8.51219 23.3269 9.09697 23.094C9.68174 22.8612 10.2099 22.5169 10.6815 22.0612C11.1531 21.6056 11.5539 21.0436 11.8841 20.3754C12.2142 19.7071 12.4453 18.9376 12.5773 18.0668H3.80573V14.3913H12.549C12.4075 13.5711 12.1812 12.8471 11.8699 12.2194C11.5681 11.5815 11.1908 11.0448 10.7381 10.6094C10.2948 10.174 9.78549 9.84494 9.21015 9.62219C8.63481 9.39943 8.01231 9.28805 7.34265 9.28805C6.58811 9.28805 5.97504 9.37411 5.50345 9.54624C5.04129 9.70825 4.64987 9.89051 4.32919 10.093C4.01794 10.2854 3.74914 10.4677 3.52277 10.6398C3.30584 10.8018 3.07005 10.8828 2.81539 10.8828C2.56073 10.8828 2.36266 10.8271 2.22119 10.7157C2.07971 10.5942 1.9571 10.4626 1.85335 10.3208L0.240511 7.99706Z" fill="#EFF3FF"/>
<path d="M34.7483 9.36399H28.9477V27.4226H24.1658V9.36399H18.3652V5.29358H34.7483V9.36399Z" fill="#EFF3FF"/>
<path d="M41.9884 9.24248V14.4064H48.468V18.2035H41.9884V23.4737H50.4487V27.4226H37.1781V5.29358H50.4487V9.24248H41.9884Z" fill="#EFF3FF"/>
<path d="M60.6702 16.1531C61.9152 16.1531 62.8112 15.8341 63.3582 15.1962C63.9053 14.5583 64.1788 13.6673 64.1788 12.5231C64.1788 12.0168 64.108 11.5561 63.9666 11.141C63.8251 10.7259 63.6082 10.3715 63.3158 10.0778C63.0328 9.77407 62.6697 9.54118 62.2264 9.37918C61.7925 9.21717 61.2738 9.13616 60.6702 9.13616H58.1802V16.1531H60.6702ZM60.6702 5.29358C62.1227 5.29358 63.3676 5.48089 64.4052 5.85553C65.4521 6.22005 66.3104 6.72632 66.98 7.37434C67.6591 8.02237 68.159 8.78684 68.4797 9.66775C68.8004 10.5487 68.9607 11.5004 68.9607 12.5231C68.9607 13.6268 68.7956 14.6393 68.4655 15.5607C68.1354 16.4821 67.6308 17.2719 66.9517 17.9301C66.2726 18.5882 65.4096 19.1046 64.3627 19.4793C63.3252 19.8438 62.0944 20.026 60.6702 20.026H58.1802V27.4226H53.3982V5.29358H60.6702Z" fill="#EFF3FF"/>
<path d="M89.3827 5.29358V27.4226H84.5725V18.0668H76.197V27.4226H71.3868V5.29358H76.197V14.5431H84.5725V5.29358H89.3827Z" fill="#EFF3FF"/>
<path d="M62.0695 56.0063H57.2593V37.6895H49.5205V56.0063H44.7103V33.8773H62.0695V56.0063Z" fill="#EFF3FF"/>
<path d="M73.3419 44.7368C74.5869 44.7368 75.483 44.4178 76.03 43.7799C76.577 43.142 76.8506 42.251 76.8506 41.1068C76.8506 40.6005 76.7798 40.1398 76.6384 39.7247C76.4969 39.3095 76.2799 38.9551 75.9876 38.6615C75.7046 38.3577 75.3415 38.1249 74.8982 37.9629C74.4643 37.8008 73.9456 37.7198 73.3419 37.7198H70.852V44.7368H73.3419ZM73.3419 33.8773C74.7944 33.8773 76.0394 34.0646 77.0769 34.4392C78.1239 34.8037 78.9822 35.31 79.6518 35.958C80.3309 36.6061 80.8308 37.3705 81.1515 38.2514C81.4722 39.1323 81.6325 40.0841 81.6325 41.1068C81.6325 42.2105 81.4674 43.223 81.1373 44.1444C80.8072 45.0658 80.3026 45.8556 79.6235 46.5138C78.9444 47.1719 78.0814 47.6883 77.0345 48.063C75.997 48.4275 74.7661 48.6097 73.3419 48.6097H70.852V56.0063H66.07V33.8773H73.3419Z" fill="#EFF3FF"/>
<path d="M130.278 33.8773V56.0063H126.062V43.2787C126.062 42.9851 126.066 42.6661 126.076 42.3218C126.095 41.9776 126.123 41.6283 126.161 41.2739L120.686 52.6498C120.516 53.0041 120.285 53.2725 119.992 53.4547C119.709 53.637 119.384 53.7281 119.016 53.7281H118.365C117.998 53.7281 117.667 53.637 117.375 53.4547C117.092 53.2725 116.866 53.0041 116.696 52.6498L111.221 41.2435C111.249 41.608 111.273 41.9675 111.292 42.3218C111.31 42.6661 111.32 42.9851 111.32 43.2787V56.0063H107.104V33.8773H110.754C110.961 33.8773 111.141 33.8823 111.292 33.8924C111.452 33.9026 111.593 33.9329 111.716 33.9836C111.839 34.0342 111.947 34.1152 112.041 34.2266C112.145 34.3278 112.244 34.4747 112.339 34.667L117.644 45.8911C117.833 46.2758 118.012 46.6758 118.182 47.0909C118.361 47.5061 118.53 47.9313 118.691 48.3667C118.851 47.9212 119.016 47.4858 119.186 47.0605C119.365 46.6353 119.554 46.2303 119.752 45.8455L125.043 34.667C125.137 34.4747 125.232 34.3278 125.326 34.2266C125.43 34.1152 125.543 34.0342 125.666 33.9836C125.788 33.9329 125.925 33.9026 126.076 33.8924C126.236 33.8823 126.42 33.8773 126.628 33.8773H130.278Z" fill="#EFF3FF"/>
<path fill-rule="evenodd" clip-rule="evenodd" d="M115.144 12.3873C112.751 7.3703 107.028 5.39012 102.359 7.95708C97.6884 10.525 95.8389 16.6689 98.2331 21.6849C100.626 26.7019 106.348 28.685 111.019 26.1171C115.688 23.5501 117.535 17.4024 115.144 12.3873ZM112.418 13.8124C110.794 10.4057 106.907 9.06103 103.737 10.8041C100.565 12.5479 99.3094 16.7198 100.935 20.1259C102.56 23.5327 106.446 24.8793 109.617 23.1355C112.788 21.3925 114.042 17.2179 112.418 13.8124Z" fill="#EFF3FF"/>
<path fill-rule="evenodd" clip-rule="evenodd" d="M97.2043 26.1992L94.5184 27.2655C94.1041 27.4291 93.6057 27.2246 93.4059 26.8058L91.5162 22.843C91.3149 22.421 91.4496 21.8664 91.8147 21.6036L94.1934 19.8853C93.9572 18.7056 93.8664 17.5181 93.9228 16.3418L91.325 15.0589C90.9261 14.8637 90.712 14.3366 90.8461 13.8865L92.1177 9.64321C92.2518 9.19705 92.7147 8.90852 93.1445 8.99656L95.9529 9.58302C96.5483 8.59487 97.2662 7.68357 98.0993 6.8771L97.1063 3.98907C96.9539 3.54825 97.1488 3.0106 97.5388 2.79615L101.231 0.766205C101.621 0.551758 102.141 0.696258 102.385 1.08672L103.986 3.63849C105.083 3.38409 106.191 3.29139 107.284 3.35108L108.481 0.554498C108.664 0.129353 109.156 -0.10288 109.573 0.0442773L113.517 1.41375C113.935 1.55851 114.207 2.0539 114.125 2.51946L113.577 5.53175C114.497 6.17111 115.343 6.94357 116.094 7.83417L118.783 6.77027C119.193 6.60504 119.693 6.81272 119.893 7.23312L121.783 11.196C121.984 11.618 121.849 12.1749 121.485 12.4369L119.11 14.1536C119.346 15.3333 119.437 16.5208 119.38 17.6971L121.978 18.98C122.376 19.1776 122.592 19.7038 122.457 20.1524L121.185 24.3941C121.051 24.8419 120.588 25.1328 120.158 25.0423L117.348 24.4551C116.754 25.4425 116.036 26.3538 115.203 27.1602L116.195 30.0467C116.348 30.4875 116.153 31.0251 115.763 31.2396L112.071 33.2695C111.68 33.484 111.16 33.3395 110.916 32.949L109.317 30.394C108.221 30.6484 107.115 30.7419 106.022 30.6822L104.826 33.4764C104.641 33.9024 104.151 34.1338 103.733 33.989L99.7871 32.6204C99.3679 32.4764 99.0962 31.981 99.1804 31.5162L99.7266 28.5048C98.8056 27.8638 97.9591 27.0938 97.2043 26.1992ZM111.674 32.2331L109.848 29.1208C108.379 29.5971 106.303 29.6001 105.448 29.5421L104.027 32.8857L100.265 31.597L100.865 27.9585C99.5169 27.1715 98.0549 25.5745 97.4925 24.8812L94.2788 26.147L92.4871 22.3685L95.3532 20.3408C94.9141 18.7616 94.9235 16.4772 94.9802 15.5598L91.8706 14.0234L93.0823 9.98785L96.4761 10.7501C97.2111 9.30332 98.6878 7.73594 99.3343 7.1331L98.1604 3.68047L101.682 1.76235L103.507 4.87467C104.977 4.39837 107.053 4.39536 107.908 4.4534L109.329 1.10975L113.091 2.3985L112.49 6.03703C113.839 6.82398 115.301 8.42102 115.863 9.11427L119.077 7.84849L120.869 11.627L118.003 13.6547C118.442 15.2339 118.432 17.5183 118.376 18.4356L121.485 19.9721L120.274 24.0076L116.88 23.2454C116.145 24.6922 114.668 26.2596 114.022 26.8624L115.195 30.315L111.674 32.2331Z" fill="#EFF3FF"/>
<path fill-rule="evenodd" clip-rule="evenodd" d="M99.8456 40.2953C97.433 36.9338 92.9423 36.3115 89.8136 38.8999C86.6838 41.4893 86.0997 46.3102 88.5135 49.6707C90.9261 53.0322 95.4165 53.6568 98.5464 51.0674C101.675 48.479 102.257 43.6556 99.8456 40.2953ZM98.0098 41.752C96.3716 39.4694 93.3222 39.0468 91.1977 40.8045C89.0723 42.5628 88.6758 45.8364 90.3148 48.1184C91.9531 50.401 95.0023 50.8251 97.1276 49.0668C99.2521 47.3091 99.6475 44.0338 98.0098 41.752Z" fill="#EFF3FF"/>
<path fill-rule="evenodd" clip-rule="evenodd" d="M88.3288 53.1643L86.4764 54.3495C86.1907 54.5317 85.7955 54.4538 85.5941 54.1732L83.6884 51.518C83.4855 51.2352 83.5143 50.8049 83.751 50.5565L85.2926 48.9338C84.9669 48.0953 84.7479 47.2296 84.6392 46.3505L82.5519 45.7836C82.2316 45.6979 82.0058 45.3393 82.0475 44.9863L82.4466 41.6575C82.4889 41.3075 82.7947 41.0257 83.1242 41.0275L85.2784 41.0477C85.593 40.2284 86.008 39.448 86.5218 38.7282L85.4174 36.7365C85.2482 36.4327 85.3238 36.0059 85.5852 35.7897L88.0593 33.7427C88.3207 33.5265 88.7243 33.5568 88.9548 33.8099L90.4664 35.463C91.2456 35.1131 92.0543 34.8811 92.8714 34.7642L93.4001 32.5175C93.4815 32.1757 93.8157 31.9314 94.1433 31.9788L97.2387 32.4113C97.5665 32.4569 97.831 32.7836 97.8298 33.1403L97.8093 35.4511C98.5724 35.7888 99.2973 36.236 99.9672 36.7846L101.822 35.6007C102.104 35.418 102.501 35.498 102.703 35.7797L104.609 38.4349C104.812 38.7176 104.783 39.1499 104.547 39.3974L103.007 41.0185C103.333 41.857 103.552 42.7227 103.661 43.6018L105.748 44.1687C106.068 44.2563 106.295 44.6141 106.253 44.966L105.853 48.2937C105.811 48.6448 105.505 48.9285 105.176 48.9248L103.02 48.9043C102.706 49.7228 102.291 50.5032 101.777 51.223L102.881 53.2136C103.05 53.5175 102.975 53.9443 102.713 54.1605L100.239 56.2074C99.9778 56.4237 99.5742 56.3934 99.3437 56.1403L97.8334 54.4844C97.0541 54.8344 96.2472 55.0666 95.4301 55.1835L94.9016 57.4283C94.8193 57.7709 94.486 58.0145 94.1582 57.9689L91.0618 57.5372C90.733 57.4924 90.4685 57.1657 90.4715 56.8092L90.4909 54.4993C89.7271 54.1606 89.002 53.7153 88.3288 53.1643ZM99.813 55.4987L98.0637 53.4636C97.0367 54.0328 95.4997 54.341 94.8596 54.424L94.2346 57.1088L91.2845 56.7092L91.2643 53.9271C90.1653 53.5432 88.8787 52.5764 88.3737 52.1461L86.1562 53.5568L84.3466 51.0236L86.2095 49.1001C85.6825 47.9957 85.3975 46.3032 85.3222 45.6157L82.8235 44.9366L83.2048 41.7705L85.815 41.8346C86.1742 40.6552 87.0672 39.2773 87.4688 38.7357L86.1584 36.3527L88.5206 34.4137L90.27 36.4487C91.297 35.8796 92.8339 35.5713 93.474 35.4883L94.099 32.8035L97.0491 33.2031L97.0693 35.9853C98.1684 36.3691 99.4549 37.3359 99.9599 37.7663L102.177 36.3556L103.987 38.8887L102.124 40.8123C102.651 41.9166 102.936 43.6091 103.011 44.2966L105.51 44.9757L105.129 48.1418L102.519 48.0777C102.159 49.2571 101.266 50.6351 100.865 51.1767L102.175 53.5596L99.813 55.4987Z" fill="#EFF3FF"/>
</svg>
